<?xml version="1.0" encoding="UTF-8" standalone="no"?>
<!-- Created with Inkscape (http://www.inkscape.org/) -->

<svg
   version="1.1"
   id="svg1"
   width="2420"
   height="320"
   viewBox="0 0 2420 320"
   xmlns="http://www.w3.org/2000/svg"
   xmlns:svg="http://www.w3.org/2000/svg">
  <defs
     id="defs1" />
  <g
     id="g1" />
  <g
     id="layer3">
    <path
       style="fill:#d6a7e2;fill-opacity:1;stroke:none"
       d="m 325,130 c 0,0 100,-70 170,-70 80,0 110,70 110,110 0,40 10,-40 -125,-40 -95,0 -165,55 -165,135 v 55 h 130 c 0,0 -95,-150 35,-150 135,0 55,150 55,150 H 645 V 170 C 645,80 595,0 465,0 385,0 325,20 325,20 Z"
       id="path1-8-2" />
    <path
       style="fill:#d6a7e2;fill-opacity:1;stroke:none"
       d="m 880,130 c 0,0 100,-70 170,-70 80,0 110,70 110,110 0,40 10,-40 -125,-40 -95,0 -165,55 -165,135 v 55 h 130 c 0,0 -95,-150 35,-150 135,0 55,150 55,150 h 125 c 0,0 -15,-89.4883 -15,-150 C 1200,95 1150,0 1020,0 940,0 880,20 880,20 Z"
       id="path1-8-2-9" />
    <path
       style="fill:#d6a7e2;fill-opacity:1;stroke:none"
       d="m 2090,130 c 0,0 100,-70 170,-70 80,0 120,70 120,110 0,40 0,-40 -135,-40 -95,0 -165,55 -165,135 v 55 h 130 c 0,0 -95,-150 35,-150 135,0 55,150 55,150 h 120 V 280 200 C 2420,80 2360,0 2230,0 2150,0 2090,20 2090,20 Z"
       id="path1-8-1" />
    <path
       style="fill:#d6a7e2;fill-opacity:1;stroke:none"
       d="m 1750,20 c 0,0 -10,29.4883 -10,120 0,90.5117 25,180 25,180 h -110 c 0,0 25,-89.4883 25,-180 0,-90.5117 -10,-120 -10,-120 z"
       id="path3-1" />
    <path
    style="fill:#d6a7e2;fill-opacity:1;stroke:none"
       d="M 660,20 V 140 320 H 855 V 260 H 810 C 735,260 720,195 720,145 720,35 755,20 755,20 Z"
       id="path36" />
    <path
       style="fill:#d6a7e2;fill-opacity:1;stroke:none"
       d="m 1375,320 c 0,0 -90,-120 -90,-210 0,-80 140,-64.9241 140,90 0,60 -30,120 -30,120 h 90 c 0,0 -30,-60 -30,-120 0,-155 140,-170 140,-90 0,90 -90,210 -90,210 h 120 c 0,0 30,-89.4883 30,-180 0,-80 -70,-140 -120,-140 -50,0 -55,30 -95,30 -50,0 -45,-30 -95,-30 -50,0 -130,60 -130,140 0,90 25,180 25,180 z"
       id="path4" />
    <path
       style="fill:#d6a7e2;fill-opacity:1;stroke:none"
       d="m 1930,320 c 0,0 -100,-120 -100,-210 0,-80 170,-64.9241 170,90 v 120 h 60 V 20 c 0,0 -110,-20 -160,-20 -110,0 -130,60 -130,140 0,90.5117 30,180 30,180 z"
       id="path4-6" />
    <path
       style="fill:#d6a7e2;fill-opacity:1;stroke:none"
       d="m 290,130 c 0,0 -75,-60 -180,-60 -80,0 -64.9241,190 90,190 h 100 v 60 H 25 C 25,320 0,230.5117 0,160 0,50 60,0 140,0 230.5117,0 290,20 290,20 Z"
       id="path4-6-7" />
  </g>
</svg>
